<p>[gdigrab @ 000001752061c7c0] Capturing whole desktop as 882x498x32 at (106,145)
</p><p>Input #0, gdigrab, from 'desktop':
  Duration: N/A, start: 1518073664.596278, bitrate: 351399 kb/s</p><p>
    Stream #0:0: Video: bmp, bgra, 882x498, 351399 kb/s, 25 fps, 25 tbr, 1000k tbn, 1000k tbc
</p><p>Guessed Channel Layout for Input Stream #1.0 : stereo
Input #1, dshow, from 'audio=立体声混音 (Realtek High Definition Audio)':
  Duration: N/A, start: 1145455.596000, bitrate: 1411 kb/s
    Stream #1:0</p><p>: Audio: pcm_s16le, 44100 Hz, stereo, s16, 1411 kb/s
</p><p>Stream mapping:
  Stream #0:0 -> #0:0 (bmp (native) -> h264 (libx264))
  Stream #1:0 -> #0:1 (pcm_s16le (native) -> aac (native))
Press [q] to stop, [?] for help
</p><p>[libx264 @ 000001752069a300] using cpu capabilities: MMX2 SSE2Fast SSSE3 SSE4.2 AVX FMA3 BMI2 AVX2
</p><p>[libx264 @ 000001752069a300] profile High, level 3.2
</p><p>[libx264 @ 000001752069a300] 264 - core 155 r2893 b00bcaf - H.264/MPEG-4 AVC codec - Copyleft 2003-2017 - http://www.videolan.org/x264.html - options: cabac=1 ref=3 deblock=1:0:0 analyse=0x3:0x113 me=hex subme=7 psy=1 psy_rd=1.00:0.00 mixed_ref=1 me_range=16 chroma_me=1 trellis=1 8x8dct=1 cqm=0 deadzone=21,11 fast_pskip=1 chroma_qp_offset=-2 threads=12 lookahead_threads=2 sliced_threads=0 nr=0 decimate=1 interlaced=0 bluray_compat=0 constrained_intra=0 bframes=3 b_pyramid=2 b_adapt=1 b_bias=0 direct=1 weightb=1 open_gop=0 weightp=2 keyint=250 keyint_min=25 scenecut=40 intra_refresh=0 rc_lookahead=40 rc=abr mbtree=1 bitrate=1024 ratetol=1.0 qcomp=0.60 qpmin=0 qpmax=69 qpstep=4 ip_ratio=1.40 aq=1:1.00
</p><p>Output #0, mp4, to 'C:\Users\wwp\desktop\fup00.mp4':
  Metadata:
    encoder         : Lavf58.6.100
</p><p>    Stream #0:0: Video: h264 (libx264) (avc1 / 0x31637661), yuv420p(progressive), 1280x722, q=-1--1, 1024 kb/s, 25 fps, 12800 tbn, 25 tbc
    Metadata:
      encoder         : Lavc58.9.100 libx264
    Side data:
      cpb: bitrate max/min/avg: 0/0/1024000 buffer size: 0 vbv_delay: -1
    Stream #0:1: Audio: aac (LC) (mp4a / 0x6134706D), 44100 Hz, stereo, fltp, 128 kb/s
    Metadata:
      encoder         : Lavc58.9.100 aac
</p><p>frame=   23 fps=0.0 q=0.0 size=       0kB time=00:00:00.44 bitrate=   0.9kbits/s speed=0.875x    </p><p>frame=   36 fps= 36 q=0.0 size=       0kB time=00:00:00.44 bitrate=   0.9kbits/s speed=0.436x    </p><p>frame=   49 fps= 32 q=0.0 size=       0kB time=00:00:00.44 bitrate=   0.9kbits/s speed=0.291x    </p><p>frame=   62 fps= 31 q=37.0 size=       0kB time=00:00:00.44 bitrate=   0.9kbits/s speed=0.218x    </p><p>frame=   74 fps= 29 q=28.0 size=       0kB time=00:00:00.96 bitrate=   0.4kbits/s speed=0.382x    </p><p>frame=   87 fps= 29 q=25.0 size=       0kB time=00:00:01.45 bitrate=   0.3kbits/s speed=0.479x    </p><p>frame=   99 fps= 28 q=26.0 size=       0kB time=00:00:01.96 bitrate=   0.2kbits/s speed=0.554x    </p><p>frame=  112 fps= 28 q=26.0 size=       0kB time=00:00:02.44 bitrate=   0.2kbits/s speed=0.606x    </p><p>frame=  125 fps= 27 q=23.0 size=     256kB time=00:00:02.95 bitrate= 708.6kbits/s speed=0.65x    </p><p>frame=  137 fps= 27 q=23.0 size=     256kB time=00:00:03.44 bitrate= 608.4kbits/s speed=0.682x    </p><p>frame=  150 fps= 27 q=25.0 size=     256kB time=00:00:03.95 bitrate= 529.9kbits/s speed=0.711x    </p><p>frame=  163 fps= 27 q=26.0 size=     512kB time=00:00:04.44 bitrate= 943.5kbits/s speed=0.732x    </p><p>frame=  175 fps= 27 q=25.0 size=     512kB time=00:00:04.95 bitrate= 846.2kbits/s speed=0.754x    </p><p>frame=  188 fps= 27 q=25.0 size=     512kB time=00:00:05.44 bitrate= 770.4kbits/s speed=0.77x    </p><p>frame=  200 fps= 26 q=25.0 size=     512kB time=00:00:05.95 bitrate= 704.4kbits/s speed=0.786x    </p><p>frame=  213 fps= 26 q=24.0 size=     768kB time=00:00:06.44 bitrate= 976.6kbits/s speed=0.797x    </p><p>frame=  226 fps= 26 q=23.0 size=     768kB time=00:00:06.95 bitrate= 904.8kbits/s speed=0.81x    </p><p>frame=  238 fps= 26 q=23.0 size=     768kB time=00:00:07.44 bitrate= 845.5kbits/s speed=0.818x    </p><p>frame=  251 fps= 26 q=25.0 size=     768kB time=00:00:07.95 bitrate= 791.2kbits/s speed=0.829x    </p><p>frame=  264 fps= 26 q=24.0 size=    1024kB time=00:00:08.46 bitrate= 991.4kbits/s speed=0.838x    </p><p>frame=  276 fps= 26 q=24.0 size=    1024kB time=00:00:08.95 bitrate= 937.2kbits/s speed=0.844x    </p><p>frame=  289 fps= 26 q=24.0 size=    1024kB time=00:00:09.46 bitrate= 886.6kbits/s speed=0.852x    </p><p>frame=  301 fps= 26 q=23.0 size=    1024kB time=00:00:09.94 bitrate= 843.2kbits/s speed=0.857x    </p><p>frame=  314 fps= 26 q=23.0 size=    1280kB time=00:00:10.45 bitrate=1002.5kbits/s speed=0.863x    </p><p>frame=  314 fps= 25 q=-1.0 Lsize=    1634kB time=00:00:12.44 bitrate=1075.9kbits/s speed=0.979x    
video:1459kB audio:165kB subtitle:0kB other streams:0kB global headers:0kB muxing overhead: 0.652641%
</p><p>[libx264 @ 000001752069a300] frame I:3     Avg QP:17.17  size: 81143
[libx264 @ 000001752069a300] </p><p>frame P:86    Avg QP:16.18  size: 12573
[libx264 @ 000001752069a300] frame B:225   Avg QP:21.78  size:   747
[libx264 @ 000001752069a300] consecutive B-frames:  1.9%  5.7%  5.7% 86.6%
[libx264 @ 000001752069a300] mb I  I16..4: 25.3% 49.4% 25.2%
[libx264 @ 000001752069a300] mb P  I16..4:  1.5%  3.4%  1.0%  P16..4: 20.0%  9.6%  6.2%  0.0%  0.0%    skip:58.3%
[libx264 @ 000001752069a300] mb B  I16..4:  0.2%  0.3%  0.1%  B16..8: 12.9%  0.4%  0.1%  direct: 0.2%  skip:85.9%  L0:40.3% L1:57.8% BI: 1.9%
[libx264 @ 000001752069a300] final ratefactor: 18.74
[libx264 @ 000001752069a300] 8x8 transform intra:54.5% inter:68.9%
</p><p>[libx264 @ 000001752069a300] coded y,uvDC,uvAC intra: 52.7% 63.3% 43.9% inter: 4.6% 4.9% 0.5%
[libx264 @ 000001752069a300] i16 v,h,dc,p: 53% 33%  3% 11%
[libx264 @ 000001752069a300] i8 v,h,dc,ddl,ddr,vr,hd,vl,hu: 34% 22% 16%  3%  4%  7%  4%  5%  4%
[libx264 @ 000001752069a300] i4 v,h,dc,ddl,ddr,vr,hd,vl,hu: 40% 26% 10%  3%  5%  6%  4%  4%  3%
[libx264 @ 000001752069a300] i8c dc,h,v,p: 47% 25% 23%  4%
[libx264 @ 000001752069a300] Weighted P-Frames: Y:2.3% UV:2.3%
[libx264 @ 000001752069a300] ref P L0: 73.1%  8.7% 13.7%  4.5%
[libx264 @ 000001752069a300] ref B L0: 90.2%  8.8%  1.0%
</p><p>[libx264 @ 000001752069a300] ref B L1: 96.7%  3.3%
[libx264 @ 000001752069a300] kb/s:950.83
</p><p>[aac @ 000001752069c200] Qavg: 187.567
</p>